# xmcd
#
# Track frame offsets:
# 150
# 18677
# 32560
# 53775
# 87727
# 135880
# 155942
#
# Disc length: 2381 seconds
#
# Revision: 1
# Processed by: cddbd v1.5PL3 Copyright (c) Steve Scherf et al.
# Submitted via: Easy CD Ripper v2.27
#
DISCID=59094b07
DTITLE=Lluís Llach - Camp del Barça - 6 de juliol de 1985 - Disc 2
DYEAR=1985
DGENRE=Native American
TTITLE0=Abril 74
TTITLE1=Campanades a morts (fragment)
TTITLE2=Bresol de tots els blaus
TTITLE3=Amor particular
TTITLE4=Itaca (fragment)
TTITLE5=Cant de l'enyor
TTITLE6=L'estaca
EXTD=
EXTT0=
EXTT1=
EXTT2=
EXTT3=
EXTT4=
EXTT5=
EXTT6=
PLAYORDER=
